<?xml version="1.0" encoding="utf-8"?>
<!-- Generator: Adobe Illustrator 15.0.0, SVG Export Plug-In . SVG Version: 6.00 Build 0)  -->
<!DOCTYPE svg PUBLIC "-//W3C//DTD SVG 1.1//EN" "http://www.w3.org/Graphics/SVG/1.1/DTD/svg11.dtd">
<svg version="1.1" id="Calque_1" xmlns="http://www.w3.org/2000/svg" xmlns:xlink="http://www.w3.org/1999/xlink" x="0px" y="0px"
	 width="211.944px" height="59.36px" viewBox="0 0 211.944 59.36" enable-background="new 0 0 211.944 59.36" xml:space="preserve">
<g>
	<path fill="#FFFFFF" d="M8.848,38.061l-0.87-2.854H3.608l-0.869,2.854H0l4.231-12.037h3.108l4.248,12.037H8.848z M7.372,33.074
		c-0.804-2.586-1.256-4.047-1.357-4.387c-0.102-0.34-0.173-0.607-0.218-0.803c-0.18,0.699-0.697,2.43-1.549,5.189H7.372z"/>
	<path fill="#FFFFFF" d="M21.361,38.061H18.86v-5.355c0-0.66-0.118-1.156-0.353-1.488c-0.235-0.33-0.609-0.496-1.124-0.496
		c-0.7,0-1.206,0.234-1.517,0.701c-0.311,0.469-0.467,1.244-0.467,2.326v4.313h-2.501v-9.168h1.911l0.336,1.172h0.139
		c0.279-0.441,0.663-0.777,1.152-1.004c0.49-0.227,1.046-0.34,1.669-0.34c1.066,0,1.875,0.289,2.428,0.865
		c0.552,0.576,0.828,1.408,0.828,2.498V38.061z"/>
	<path fill="#FFFFFF" d="M32.399,38.061h-2.501v-5.355c0-0.66-0.118-1.156-0.353-1.488c-0.234-0.33-0.61-0.496-1.124-0.496
		c-0.7,0-1.205,0.234-1.518,0.701c-0.311,0.469-0.466,1.244-0.466,2.326v4.313h-2.501v-9.168h1.911l0.336,1.172h0.14
		c0.278-0.441,0.663-0.777,1.152-1.004c0.489-0.227,1.045-0.34,1.668-0.34c1.066,0,1.875,0.289,2.427,0.865s0.829,1.408,0.829,2.498
		V38.061z"/>
	<path fill="#FFFFFF" d="M43.306,33.461c0,1.492-0.394,2.658-1.181,3.5c-0.787,0.844-1.883,1.264-3.289,1.264
		c-0.88,0-1.656-0.193-2.329-0.576c-0.672-0.387-1.188-0.941-1.55-1.662c-0.361-0.723-0.542-1.564-0.542-2.525
		c0-1.498,0.391-2.662,1.173-3.494c0.782-0.83,1.881-1.246,3.297-1.246c0.88,0,1.656,0.191,2.329,0.574
		c0.672,0.383,1.189,0.932,1.55,1.648S43.306,32.498,43.306,33.461z M36.966,33.461c0,0.906,0.149,1.594,0.448,2.059
		c0.298,0.465,0.783,0.697,1.455,0.697c0.667,0,1.147-0.232,1.439-0.695c0.292-0.461,0.438-1.148,0.438-2.061
		c0-0.908-0.147-1.588-0.443-2.043c-0.295-0.453-0.779-0.68-1.452-0.68c-0.667,0-1.148,0.225-1.443,0.676
		C37.114,31.865,36.966,32.547,36.966,33.461z"/>
	<path fill="#FFFFFF" d="M53.835,38.061h-2.501v-5.355c0-0.66-0.118-1.156-0.353-1.488c-0.235-0.33-0.61-0.496-1.124-0.496
		c-0.7,0-1.206,0.234-1.517,0.701c-0.312,0.469-0.468,1.244-0.468,2.326v4.313h-2.501v-9.168h1.911l0.336,1.172h0.14
		c0.279-0.441,0.663-0.777,1.152-1.004c0.489-0.227,1.045-0.34,1.668-0.34c1.066,0,1.875,0.289,2.427,0.865s0.829,1.408,0.829,2.498
		V38.061z"/>
	<path fill="#FFFFFF" d="M60.132,38.225c-2.854,0-4.281-1.566-4.281-4.699c0-1.557,0.389-2.748,1.165-3.57
		c0.776-0.822,1.889-1.234,3.337-1.234c1.061,0,2.012,0.207,2.854,0.623l-0.738,1.936c-0.394-0.158-0.76-0.289-1.099-0.391
		c-0.34-0.102-0.678-0.15-1.018-0.15c-1.301,0-1.951,0.924-1.951,2.771c0,1.793,0.65,2.689,1.951,2.689
		c0.481,0,0.927-0.064,1.337-0.193c0.41-0.127,0.82-0.328,1.229-0.602v2.139c-0.404,0.258-0.812,0.436-1.226,0.535
		C61.282,38.176,60.761,38.225,60.132,38.225z"/>
	<path fill="#FFFFFF" d="M69.194,38.225c-1.477,0-2.63-0.406-3.46-1.223c-0.832-0.814-1.247-1.967-1.247-3.459
		c0-1.537,0.384-2.725,1.153-3.563c0.768-0.84,1.83-1.26,3.186-1.26c1.296,0,2.304,0.369,3.026,1.107
		c0.721,0.738,1.082,1.758,1.082,3.059V34.1h-5.912c0.028,0.711,0.238,1.266,0.632,1.664c0.394,0.4,0.946,0.598,1.656,0.598
		c0.552,0,1.074-0.057,1.566-0.17c0.492-0.115,1.006-0.299,1.542-0.551v1.936c-0.438,0.217-0.905,0.383-1.402,0.488
		C70.517,38.172,69.91,38.225,69.194,38.225z M68.841,30.5c-0.53,0-0.947,0.168-1.247,0.504c-0.3,0.336-0.473,0.814-0.517,1.432
		h3.51c-0.012-0.617-0.172-1.096-0.484-1.432S69.371,30.5,68.841,30.5z"/>
	<path fill="#FFFFFF" d="M81.363,35.338c0,0.939-0.327,1.656-0.98,2.148s-1.63,0.738-2.931,0.738c-0.667,0-1.236-0.047-1.706-0.135
		c-0.47-0.092-0.91-0.223-1.32-0.398v-2.066c0.464,0.219,0.988,0.402,1.571,0.549c0.582,0.148,1.094,0.221,1.537,0.221
		c0.907,0,1.361-0.262,1.361-0.785c0-0.197-0.061-0.357-0.18-0.48c-0.12-0.123-0.328-0.262-0.624-0.418
		c-0.295-0.156-0.689-0.338-1.181-0.545c-0.705-0.295-1.223-0.568-1.554-0.82c-0.331-0.252-0.571-0.539-0.722-0.865
		c-0.15-0.324-0.226-0.727-0.226-1.201c0-0.814,0.316-1.445,0.948-1.891c0.631-0.445,1.526-0.668,2.685-0.668
		c1.104,0,2.179,0.24,3.223,0.721l-0.754,1.805c-0.459-0.197-0.889-0.357-1.288-0.484c-0.399-0.125-0.806-0.188-1.221-0.188
		c-0.738,0-1.107,0.199-1.107,0.598c0,0.225,0.119,0.418,0.357,0.582s0.759,0.408,1.562,0.73c0.716,0.289,1.241,0.561,1.574,0.813
		c0.333,0.25,0.58,0.541,0.738,0.869C81.284,34.494,81.363,34.885,81.363,35.338z"/>
	<path fill="#FFFFFF" d="M82.503,34.584v-2.051h4.403v2.051H82.503z"/>
	<path fill="#FFFFFF" d="M93.991,38.061l-2.887-9.406h-0.073c0.104,1.914,0.155,3.191,0.155,3.83v5.576h-2.271V26.072h3.461
		l2.837,9.168h0.049l3.01-9.168h3.46v11.988h-2.37v-5.674c0-0.27,0.004-0.578,0.013-0.928s0.045-1.279,0.11-2.787h-0.074
		l-3.092,9.389H93.991z"/>
	<path fill="#FFFFFF" d="M110.375,38.061l-0.484-1.246h-0.064c-0.422,0.529-0.855,0.898-1.301,1.102
		c-0.445,0.207-1.025,0.309-1.743,0.309c-0.88,0-1.573-0.252-2.079-0.754c-0.505-0.502-0.758-1.221-0.758-2.148
		c0-0.973,0.34-1.691,1.021-2.152c0.68-0.463,1.707-0.719,3.08-0.768l1.59-0.049v-0.402c0-0.93-0.476-1.393-1.427-1.393
		c-0.732,0-1.594,0.221-2.583,0.662l-0.828-1.688c1.055-0.553,2.225-0.828,3.51-0.828c1.23,0,2.173,0.268,2.828,0.803
		c0.656,0.535,0.985,1.35,0.985,2.443v6.109H110.375z M109.637,33.813l-0.967,0.033c-0.728,0.021-1.27,0.152-1.625,0.393
		c-0.355,0.242-0.532,0.607-0.532,1.1c0,0.705,0.404,1.057,1.214,1.057c0.578,0,1.043-0.164,1.389-0.498
		c0.348-0.334,0.521-0.777,0.521-1.328V33.813z"/>
	<path fill="#FFFFFF" d="M119.813,28.721c0.34,0,0.621,0.025,0.846,0.074l-0.189,2.346c-0.201-0.055-0.447-0.084-0.737-0.084
		c-0.798,0-1.42,0.207-1.865,0.617c-0.446,0.41-0.669,0.982-0.669,1.721v4.666h-2.501v-9.168h1.895l0.368,1.541h0.123
		c0.285-0.514,0.669-0.928,1.152-1.242C118.719,28.877,119.245,28.721,119.813,28.721z"/>
	<path fill="#FFFFFF" d="M126.045,38.225c-2.854,0-4.279-1.566-4.279-4.699c0-1.557,0.387-2.748,1.164-3.57
		c0.775-0.822,1.889-1.234,3.338-1.234c1.061,0,2.012,0.207,2.854,0.623l-0.738,1.936c-0.394-0.158-0.76-0.289-1.1-0.391
		c-0.339-0.102-0.678-0.15-1.016-0.15c-1.302,0-1.952,0.924-1.952,2.771c0,1.793,0.65,2.689,1.952,2.689
		c0.48,0,0.926-0.064,1.336-0.193c0.41-0.127,0.82-0.328,1.23-0.602v2.139c-0.405,0.258-0.813,0.436-1.227,0.535
		C127.196,38.176,126.674,38.225,126.045,38.225z"/>
	<path fill="#FFFFFF" d="M139.42,38.061h-2.501v-5.355c0-1.322-0.491-1.984-1.476-1.984c-0.701,0-1.206,0.238-1.518,0.715
		c-0.312,0.475-0.467,1.246-0.467,2.313v4.313h-2.502v-12.76h2.502v2.6c0,0.203-0.02,0.678-0.059,1.428l-0.057,0.736h0.131
		c0.559-0.896,1.443-1.344,2.657-1.344c1.077,0,1.894,0.291,2.452,0.869c0.557,0.58,0.836,1.41,0.836,2.494V38.061z"/>
	<path fill="#FFFFFF" d="M146.145,38.225c-1.477,0-2.629-0.406-3.461-1.223c-0.831-0.814-1.246-1.967-1.246-3.459
		c0-1.537,0.384-2.725,1.152-3.563c0.768-0.84,1.83-1.26,3.186-1.26c1.296,0,2.305,0.369,3.025,1.107
		c0.723,0.738,1.082,1.758,1.082,3.059V34.1h-5.912c0.027,0.711,0.238,1.266,0.632,1.664c0.394,0.4,0.946,0.598,1.657,0.598
		c0.552,0,1.074-0.057,1.566-0.17c0.49-0.115,1.005-0.299,1.541-0.551v1.936c-0.438,0.217-0.905,0.383-1.402,0.488
		C147.467,38.172,146.862,38.225,146.145,38.225z M145.792,30.5c-0.53,0-0.946,0.168-1.247,0.504
		c-0.3,0.336-0.473,0.814-0.516,1.432h3.51c-0.012-0.617-0.173-1.096-0.484-1.432C146.743,30.668,146.323,30.5,145.792,30.5z"/>
	<path fill="#FFFFFF" d="M158.313,35.338c0,0.939-0.326,1.656-0.979,2.148c-0.652,0.492-1.63,0.738-2.931,0.738
		c-0.668,0-1.236-0.047-1.706-0.135c-0.47-0.092-0.91-0.223-1.319-0.398v-2.066c0.463,0.219,0.987,0.402,1.569,0.549
		c0.583,0.148,1.095,0.221,1.538,0.221c0.907,0,1.361-0.262,1.361-0.785c0-0.197-0.061-0.357-0.182-0.48
		c-0.119-0.123-0.327-0.262-0.623-0.418c-0.295-0.156-0.688-0.338-1.18-0.545c-0.706-0.295-1.224-0.568-1.555-0.82
		s-0.57-0.539-0.722-0.865c-0.15-0.324-0.226-0.727-0.226-1.201c0-0.814,0.316-1.445,0.947-1.891s1.527-0.668,2.686-0.668
		c1.104,0,2.179,0.24,3.223,0.721l-0.754,1.805c-0.459-0.197-0.889-0.357-1.288-0.484c-0.397-0.125-0.806-0.188-1.222-0.188
		c-0.738,0-1.107,0.199-1.107,0.598c0,0.225,0.119,0.418,0.357,0.582s0.758,0.408,1.563,0.73c0.716,0.289,1.24,0.561,1.574,0.813
		c0.333,0.25,0.579,0.541,0.738,0.869C158.235,34.494,158.313,34.885,158.313,35.338z"/>
	<path fill="#FFFFFF" d="M159.913,36.889c0-0.461,0.123-0.807,0.369-1.041c0.246-0.236,0.604-0.354,1.074-0.354
		c0.454,0,0.805,0.119,1.055,0.361c0.248,0.24,0.373,0.584,0.373,1.033c0,0.43-0.127,0.771-0.378,1.02
		c-0.251,0.25-0.602,0.373-1.05,0.373c-0.459,0-0.814-0.121-1.066-0.365C160.039,37.674,159.913,37.33,159.913,36.889z"/>
	<path fill="#FFFFFF" d="M168.778,38.225c-2.854,0-4.281-1.566-4.281-4.699c0-1.557,0.389-2.748,1.164-3.57
		c0.777-0.822,1.89-1.234,3.338-1.234c1.061,0,2.013,0.207,2.854,0.623l-0.739,1.936c-0.393-0.158-0.76-0.289-1.098-0.391
		c-0.34-0.102-0.678-0.15-1.018-0.15c-1.301,0-1.951,0.924-1.951,2.771c0,1.793,0.65,2.689,1.951,2.689
		c0.481,0,0.928-0.064,1.338-0.193c0.409-0.127,0.819-0.328,1.229-0.602v2.139c-0.405,0.258-0.813,0.436-1.226,0.535
		C169.926,38.176,169.406,38.225,168.778,38.225z"/>
	<path fill="#FFFFFF" d="M182.022,33.461c0,1.492-0.395,2.658-1.182,3.5c-0.787,0.844-1.883,1.264-3.288,1.264
		c-0.882,0-1.657-0.193-2.329-0.576c-0.672-0.387-1.189-0.941-1.551-1.662c-0.359-0.723-0.541-1.564-0.541-2.525
		c0-1.498,0.392-2.662,1.174-3.494c0.781-0.83,1.881-1.246,3.296-1.246c0.88,0,1.655,0.191,2.329,0.574
		c0.672,0.383,1.189,0.932,1.549,1.648C181.84,31.66,182.022,32.498,182.022,33.461z M175.682,33.461
		c0,0.906,0.148,1.594,0.447,2.059c0.297,0.465,0.783,0.697,1.455,0.697c0.668,0,1.146-0.232,1.438-0.695
		c0.293-0.461,0.439-1.148,0.439-2.061c0-0.908-0.146-1.588-0.443-2.043c-0.294-0.453-0.777-0.68-1.45-0.68
		c-0.667,0-1.147,0.225-1.443,0.676C175.83,31.865,175.682,32.547,175.682,33.461z"/>
	<path fill="#FFFFFF" d="M192.295,38.061h-2.5v-5.355c0-0.66-0.111-1.156-0.332-1.488c-0.223-0.33-0.57-0.496-1.047-0.496
		c-0.639,0-1.104,0.236-1.395,0.705c-0.289,0.471-0.434,1.244-0.434,2.322v4.313h-2.502v-9.168h1.912l0.334,1.172h0.141
		c0.246-0.42,0.602-0.75,1.066-0.988c0.463-0.236,0.998-0.355,1.598-0.355c1.373,0,2.303,0.447,2.789,1.344h0.221
		c0.248-0.426,0.609-0.756,1.088-0.992c0.477-0.234,1.018-0.352,1.619-0.352c1.039,0,1.824,0.268,2.357,0.799
		c0.533,0.533,0.801,1.387,0.801,2.564v5.977h-2.51v-5.355c0-0.66-0.113-1.156-0.332-1.488c-0.223-0.33-0.57-0.496-1.045-0.496
		c-0.613,0-1.07,0.219-1.375,0.656c-0.303,0.438-0.455,1.133-0.455,2.084V38.061z"/>
</g>
<g>
	<polygon fill="none" points="202.833,47.72 202.833,47.724 202.834,47.718 	"/>
	<polygon fill="none" points="209.368,17.357 210.01,14.175 209.352,17.341 	"/>
	<path fill="none" d="M184.672,3.68c-0.332-0.267-0.577-0.396-0.657-0.426c-1.943,0.264-2.897,0.437-3.204,0.568
		c-0.107,0.041-0.146,0.064-0.195,0.097c-0.061,0.042-0.16,0.128-0.352,0.335c-0.254,0.273-0.639,0.722-1.223,1.311
		c-3.623,3.652-7.281,5.977-10.754,7.374c-3.473,1.398-6.75,1.866-9.598,1.864c-3.846,0.002-6.924-0.848-8.689-1.354
		c0,0.006,0.004,0.01,0.004,0.016c-0.001,0.531,0.041,1.138,0.127,1.67c0.081,0.529,0.226,0.992,0.324,1.168l0.011,0.018
		c4.893,2.424,8.169,5.116,10.229,7.977c2.087,2.889,2.875,5.938,2.867,8.766c-0.012,4.664-2.006,8.734-3.337,11.544
		c-0.445,0.93-0.82,1.724-1.021,2.276c-0.118,0.313-0.172,0.547-0.177,0.616l-0.001,0.018c-0.002,0.045,0.027,0.242,0.232,0.563
		c0.199,0.317,0.557,0.729,1.043,1.165c0.973,0.877,2.449,1.846,4.126,2.743c3.352,1.801,7.55,3.339,10.347,3.893
		c0.794,0.159,1.473,0.236,1.926,0.234c0.092,0.001,0.164-0.005,0.234-0.01c0.538-1.583,1.266-2.911,2.232-3.943
		c1.072-1.151,2.418-1.908,3.873-2.296c0.971-0.262,1.988-0.371,3.043-0.371c3.217,0.009,6.826,0.984,10.889,2.271h0.004
		l0.072,0.004c0.139,0.003,0.439-0.043,0.803-0.166c0.367-0.121,0.801-0.311,1.248-0.552c0.895-0.479,1.846-1.161,2.561-1.831
		c0.477-0.444,0.848-0.891,1.029-1.198c0.05-0.081,0.082-0.149,0.105-0.202c-2.225-4.467-3.121-8.546-3.119-12.174
		c-0.002-3.716,0.928-6.94,2.195-9.635c1.264-2.697,2.863-4.877,4.215-6.564c0.78-0.972,1.469-1.775,1.959-2.392
		c-10.761-2.505-16.873-7.435-20.488-10.762C186.309,5.146,185.34,4.197,184.672,3.68z"/>
	<polygon fill="#194894" points="196.981,51.768 196.973,51.766 196.969,51.765 	"/>
	<path fill="#194894" d="M150.493,16.369c-0.016-0.018-0.072-0.076-0.186-0.131L150.493,16.369z"/>
	<polygon fill="#194894" points="150.383,16.467 150.499,16.376 150.493,16.369 	"/>
	<path fill="#194894" d="M202.831,47.765c-0.001,0.028-0.001,0.028-0.001,0.021C202.83,47.793,202.83,47.793,202.831,47.765
		l0.002-0.041c-0.002,0.007-0.013,0.041-0.037,0.097c0.039,0.078,0.071,0.155,0.111,0.234L202.831,47.765z"/>
	<path fill="#194894" d="M184.043,3.246l-0.063-0.006l0.002,0.001c0.004,0.001,0.021,0.009,0.032,0.013
		c0.034-0.005,0.063-0.009,0.099-0.014L184.043,3.246z"/>
	<path fill="#194894" d="M150.493,16.369l0.006,0.007l-0.032-0.056c-0.056-0.027-0.104-0.055-0.159-0.082
		C150.42,16.293,150.477,16.352,150.493,16.369z"/>
	<path fill="none" d="M184.043,2.746v0.195l-0.063,0.299l0.002,0.001c0.004,0.001,0.021,0.009,0.032,0.013
		c0.034-0.005,0.063-0.009,0.099-0.014L184.043,2.746z"/>
	<polygon fill="none" points="209.368,17.357 210.01,14.175 209.352,17.341 	"/>
	<path fill="none" d="M149.868,13.412c0.04,0.012,0.091,0.025,0.133,0.037C149.98,13.058,149.308,13.25,149.868,13.412z"/>
	<path fill="none" d="M177.19,56.076l0.02-0.009l-0.028,0.008c-0.041,0.011-0.133,0.021-0.245,0.029
		c-0.061,0.179-0.13,0.346-0.186,0.531L177.19,56.076z"/>
	<path fill="none" d="M150.493,16.369l-0.109,0.098l0.115-0.091l-0.032-0.056c-0.056-0.027-0.104-0.055-0.159-0.082L150.493,16.369z
		"/>
	<path fill="none" d="M202.831,47.765l0.002-0.041c-0.002,0.007-0.013,0.041-0.037,0.097c0.039,0.078,0.071,0.155,0.111,0.234
		L202.831,47.765z"/>
	<polygon fill="none" points="202.833,47.72 202.833,47.724 202.834,47.718 	"/>
	<path fill="none" d="M184.672,3.68c-0.332-0.267-0.577-0.396-0.657-0.426c-1.943,0.264-2.897,0.437-3.204,0.568
		c-0.107,0.041-0.146,0.064-0.195,0.097c-0.061,0.042-0.16,0.128-0.352,0.335c-0.254,0.273-0.639,0.722-1.223,1.311
		c-3.623,3.652-7.281,5.977-10.754,7.374c-3.473,1.398-6.75,1.866-9.598,1.864c-3.846,0.002-6.924-0.848-8.689-1.354
		c0,0.006,0.004,0.01,0.004,0.016c-0.001,0.531,0.041,1.138,0.127,1.67c0.081,0.529,0.226,0.992,0.324,1.168l0.011,0.018
		c4.893,2.424,8.169,5.116,10.229,7.977c2.087,2.889,2.875,5.938,2.867,8.766c-0.002,0.821-0.082,1.617-0.193,2.398
		c0.107,0.155,0.199,0.32,0.262,0.494c0.108,0.303,0.152,0.618,0.152,0.934c0.008,0.617-0.204,1.274-0.674,1.731
		c0-0.001,0-0.001,0-0.001l-0.002,0.002l0,0c0,0,0-0.001,0.002-0.001c-0.163,0.161-0.357,0.284-0.56,0.386
		c-0.69,2.165-1.601,4.074-2.324,5.601c-0.445,0.93-0.82,1.724-1.021,2.276c-0.118,0.313-0.172,0.547-0.177,0.616l-0.001,0.018
		c-0.002,0.045,0.027,0.242,0.232,0.563c0.199,0.317,0.557,0.729,1.043,1.165c0.973,0.877,2.449,1.846,4.126,2.743
		c3.352,1.801,7.55,3.339,10.347,3.893c0.794,0.159,1.473,0.236,1.926,0.234c0.092,0.001,0.164-0.005,0.234-0.01
		c0.538-1.583,1.266-2.911,2.232-3.943c1.072-1.151,2.418-1.908,3.873-2.296c0.971-0.262,1.988-0.371,3.043-0.371
		c3.217,0.009,6.826,0.984,10.889,2.271h0.004l0.072,0.004c0.139,0.003,0.439-0.043,0.803-0.166
		c0.367-0.121,0.801-0.311,1.248-0.552c0.895-0.479,1.846-1.161,2.561-1.831c0.477-0.444,0.848-0.891,1.029-1.198
		c0.05-0.081,0.082-0.149,0.105-0.202c-2.225-4.467-3.121-8.546-3.119-12.174c-0.002-3.716,0.928-6.94,2.195-9.635
		c1.264-2.697,2.863-4.877,4.215-6.564c0.78-0.972,1.469-1.775,1.959-2.392c-10.761-2.505-16.873-7.435-20.488-10.762
		C186.309,5.146,185.34,4.197,184.672,3.68z"/>
	<path fill="none" d="M208.27,16.772c-0.064,0.085-0.148,0.188-0.225,0.283c0.432,0.101,0.857,0.204,1.305,0.297l0.002-0.012
		C209.274,17.252,208.535,16.434,208.27,16.772z"/>
	<path fill="#93C13E" d="M211.772,15.481c-0.184-0.433-0.529-0.771-0.848-0.96c-0.322-0.194-0.625-0.285-0.914-0.347
		c-8.723-1.822-14.139-5.202-17.803-8.147c-1.834-1.479-3.219-2.85-4.389-3.92c-0.59-0.536-1.123-1-1.695-1.383
		c-0.285-0.189-0.586-0.36-0.926-0.494C184.86,0.098,184.471,0,184.043,0c-0.123,0-0.25,0.008-0.377,0.026
		c-1.203,0.167-2.053,0.288-2.74,0.421c-0.516,0.102-0.951,0.211-1.375,0.383c-0.314,0.127-0.617,0.297-0.877,0.488
		c-0.395,0.293-0.667,0.596-0.941,0.895c-0.275,0.303-0.566,0.633-0.996,1.065c-3.342,3.366-6.611,5.421-9.66,6.649
		c-3.051,1.227-5.891,1.629-8.387,1.629c-2.453,0-4.568-0.393-6.19-0.793c-0.812-0.201-1.499-0.403-2.062-0.564
		c-0.284-0.081-0.537-0.151-0.779-0.209c-0.25-0.055-0.463-0.11-0.826-0.115c-0.13,0-0.285,0.007-0.495,0.059
		c-0.206,0.055-0.493,0.161-0.772,0.422h0.001c-0.216,0.207-0.317,0.383-0.396,0.53c-0.131,0.259-0.184,0.454-0.232,0.653
		c-0.135,0.58-0.176,1.203-0.18,1.926c0.002,0.934,0.088,1.975,0.32,2.953c0.121,0.49,0.275,0.967,0.525,1.434
		c0.125,0.234,0.277,0.468,0.48,0.693c0.202,0.225,0.463,0.443,0.795,0.607c4.648,2.279,7.5,4.701,9.182,7.04
		c1.68,2.345,2.249,4.616,2.257,6.87c0.001,0.559-0.046,1.114-0.114,1.668c0.073-0.033,0.145-0.074,0.219-0.099
		c0.305-0.099,0.616-0.138,0.934-0.138c0.314,0,0.625,0.041,0.928,0.144c0.301,0.102,0.59,0.272,0.824,0.501l-0.002-0.002
		c0.101,0.097,0.185,0.209,0.264,0.324c0.111-0.781,0.191-1.577,0.193-2.398c0.008-2.828-0.78-5.877-2.867-8.766
		c-2.061-2.86-5.337-5.553-10.229-7.977l0.032,0.056l-0.115,0.091l0.109-0.098l-0.186-0.131c0.056,0.027,0.104,0.055,0.159,0.082
		l-0.011-0.018c-0.099-0.176-0.243-0.639-0.324-1.168c-0.086-0.532-0.128-1.139-0.127-1.67c0-0.006-0.004-0.01-0.004-0.016
		c1.766,0.506,4.844,1.355,8.689,1.354c2.848,0.002,6.125-0.466,9.598-1.864c3.473-1.397,7.131-3.722,10.754-7.374
		c0.584-0.589,0.969-1.037,1.223-1.311c0.191-0.207,0.291-0.293,0.352-0.335c0.049-0.032,0.088-0.056,0.195-0.097
		c0.307-0.132,1.261-0.305,3.204-0.568c-0.011-0.004,0.034-0.005,0,0c0.08,0.03,0.325,0.159,0.657,0.426
		c0.668,0.518,1.637,1.467,2.885,2.614c3.615,3.327,9.728,8.257,20.488,10.762c-0.49,0.616-1.179,1.42-1.959,2.392
		c-1.352,1.688-2.951,3.867-4.215,6.564c-1.268,2.694-2.197,5.919-2.195,9.635c-0.002,3.628,0.895,7.707,3.119,12.174
		c0.024-0.056,0.035-0.09,0.037-0.097V47.72l0.002-0.002c0,0-0.002,0.005-0.002,0.006l-0.002,0.041l0.076,0.29
		c-0.04-0.079-0.072-0.156-0.111-0.234c-0.023,0.053-0.056,0.121-0.105,0.202c-0.182,0.308-0.553,0.754-1.029,1.198
		c-0.715,0.67-1.666,1.353-2.561,1.831c-0.447,0.241-0.881,0.431-1.248,0.552c-0.363,0.123-0.664,0.169-0.803,0.166l-0.072-0.004
		h-0.004c-4.063-1.287-7.672-2.263-10.889-2.271c-1.055,0-2.072,0.109-3.043,0.371c-1.455,0.388-2.801,1.145-3.873,2.296
		c-0.967,1.032-1.694,2.36-2.232,3.943c-0.07,0.005-0.143,0.011-0.234,0.01c-0.453,0.002-1.132-0.075-1.926-0.234
		c-2.797-0.554-6.995-2.092-10.347-3.893c-1.677-0.897-3.153-1.866-4.126-2.743c-0.486-0.437-0.844-0.848-1.043-1.165
		c-0.205-0.32-0.234-0.518-0.232-0.563l0.001-0.018c0.005-0.069,0.059-0.304,0.177-0.616c0.2-0.553,0.575-1.347,1.021-2.276
		c0.724-1.526,1.634-3.436,2.324-5.601c-0.087,0.045-0.171,0.094-0.261,0.125c-0.303,0.108-0.617,0.151-0.934,0.151
		c-0.317,0-0.632-0.042-0.936-0.146c-0.302-0.103-0.59-0.272-0.824-0.5v0.001c-0.09-0.087-0.164-0.188-0.237-0.29
		c-0.318,0.95-0.688,1.868-1.071,2.732c-0.532,1.201-1.081,2.298-1.534,3.278c-0.227,0.492-0.43,0.954-0.596,1.405
		c-0.164,0.452-0.298,0.887-0.354,1.383c-0.014,0.124-0.021,0.247-0.021,0.37c0.006,1.001,0.408,1.851,0.928,2.585
		c0.925,1.284,2.306,2.379,3.947,3.438c2.461,1.575,5.524,2.998,8.433,4.055c1.453,0.528,2.865,0.962,4.152,1.271
		c1.29,0.306,2.439,0.493,3.459,0.495c0.565-0.004,1.097-0.049,1.664-0.26c0.283-0.108,0.58-0.267,0.859-0.522
		c0.277-0.252,0.52-0.616,0.635-1.011c0.293-0.982,0.652-1.765,1.051-2.379c0.604-0.921,1.268-1.48,2.09-1.869
		c0.82-0.383,1.836-0.579,3.084-0.579c2.537-0.01,5.945,0.851,9.912,2.12c0.363,0.115,0.715,0.154,1.053,0.155
		c1.012-0.011,1.938-0.325,2.881-0.752c1.402-0.65,2.803-1.608,3.941-2.666c0.568-0.533,1.07-1.088,1.467-1.69
		c0.387-0.605,0.723-1.261,0.738-2.143c0.002-0.377-0.08-0.794-0.275-1.175c-2.107-4.172-2.877-7.789-2.879-10.943
		c0-5.141,2.063-9.154,4.213-12.209c1.076-1.525,2.166-2.789,3.029-3.838c0.434-0.527,0.811-0.996,1.123-1.47
		c0.158-0.238,0.299-0.478,0.422-0.758c0.119-0.28,0.23-0.608,0.234-1.052C211.946,16.063,211.897,15.766,211.772,15.481z"/>
	<rect x="159.589" y="35.125" fill="#ED1C24" width="0.002" height="0.001"/>
	<rect x="163.107" y="38.62" fill="#ED1C24" width="0.003" height="0.001"/>
</g>
<g>
	<path fill="#FFFFFF" d="M29.685,41.23h0.844l-1.169,6.122h2.766l-0.143,0.732h-3.6L29.685,41.23z"/>
	<path fill="#FFFFFF" d="M36.132,47.811c-0.366,0.202-0.966,0.386-1.627,0.386c-1.302,0-1.872-0.895-1.872-1.982
		c0-1.485,1.099-3.163,2.686-3.163c0.936,0,1.444,0.56,1.444,1.271c0,1.292-1.454,1.628-3.275,1.597
		c-0.041,0.214-0.01,0.672,0.102,0.937c0.193,0.447,0.59,0.661,1.098,0.661c0.58,0,1.017-0.173,1.322-0.335L36.132,47.811z
		 M35.196,43.712c-0.804,0-1.404,0.783-1.617,1.556c1.332,0.021,2.37-0.162,2.37-0.936C35.949,43.936,35.644,43.712,35.196,43.712z"
		/>
	<path fill="#FFFFFF" d="M38.601,50.099l0.987-5.187c0.112-0.601,0.214-1.261,0.275-1.76h0.773l-0.132,0.936h0.02
		c0.438-0.651,1.088-1.037,1.77-1.037c1.058,0,1.505,0.875,1.505,1.779c0,1.739-1.24,3.366-2.878,3.366
		c-0.519,0-0.865-0.111-1.058-0.223h-0.021l-0.396,2.125H38.601z M39.984,47.261c0.224,0.173,0.539,0.274,0.946,0.274
		c1.088,0,1.993-1.353,1.993-2.645c0-0.519-0.224-1.138-0.946-1.138c-0.661,0-1.485,0.752-1.739,2.136L39.984,47.261z"/>
	<path fill="#FFFFFF" d="M49.135,45.095c0,1.525-1.078,3.102-2.736,3.102c-1.23,0-1.922-0.915-1.922-2.023
		c0-1.627,1.129-3.122,2.726-3.122C48.535,43.051,49.135,44.057,49.135,45.095z M45.352,46.142c0,0.805,0.447,1.384,1.159,1.384
		c0.997,0,1.75-1.282,1.75-2.431c0-0.57-0.264-1.373-1.149-1.373C46.054,43.722,45.352,45.014,45.352,46.142z"/>
	<path fill="#FFFFFF" d="M49.724,48.085l0.6-3.173c0.111-0.641,0.193-1.292,0.244-1.75h0.743c-0.041,0.347-0.082,0.691-0.132,1.068
		h0.031c0.315-0.671,0.844-1.18,1.505-1.18c0.082,0,0.173,0.01,0.244,0.02l-0.163,0.834c-0.061-0.01-0.142-0.02-0.234-0.02
		c-0.732,0-1.383,0.885-1.597,2.033l-0.406,2.167H49.724z"/>
	<path fill="#FFFFFF" d="M55.387,41.983l-0.224,1.179h1.18l-0.132,0.661h-1.179l-0.448,2.391c-0.061,0.274-0.101,0.528-0.101,0.783
		c0,0.295,0.142,0.478,0.468,0.478c0.153,0,0.285-0.01,0.396-0.041l-0.041,0.661c-0.152,0.062-0.406,0.092-0.651,0.092
		c-0.742,0-1.037-0.447-1.037-0.956c0-0.284,0.041-0.559,0.112-0.915l0.478-2.492h-0.702l0.122-0.661h0.702l0.173-0.915
		L55.387,41.983z"/>
	<path fill="#FFFFFF" d="M59.658,48.085c0-0.295,0.05-0.763,0.112-1.271H59.75c-0.529,1.027-1.21,1.383-1.913,1.383
		c-0.874,0-1.413-0.69-1.413-1.627c0-1.719,1.261-3.519,3.407-3.519c0.479,0,0.987,0.081,1.332,0.184l-0.508,2.572
		c-0.163,0.854-0.224,1.729-0.204,2.278H59.658z M60.207,43.793c-0.112-0.04-0.295-0.071-0.58-0.071
		c-1.281,0-2.329,1.322-2.329,2.695c0,0.549,0.193,1.089,0.844,1.089c0.702,0,1.536-0.916,1.78-2.228L60.207,43.793z"/>
	<path fill="#FFFFFF" d="M61.7,48.085l0.946-4.923h0.834l-0.936,4.923H61.7z M62.798,41.8c0.01-0.325,0.254-0.569,0.549-0.569
		c0.305,0,0.509,0.223,0.509,0.528c-0.01,0.336-0.244,0.569-0.58,0.569C62.981,42.328,62.798,42.104,62.798,41.8z"/>
	<path fill="#FFFFFF" d="M64.039,48.085l1.373-7.221h0.844l-1.373,7.221H64.039z"/>
	<path fill="#FFFFFF" d="M68.217,48.085l1.373-7.221h0.844l-1.373,7.221H68.217z"/>
	<path fill="#FFFFFF" d="M74.085,47.811c-0.366,0.202-0.967,0.386-1.627,0.386c-1.302,0-1.872-0.895-1.872-1.982
		c0-1.485,1.099-3.163,2.685-3.163c0.936,0,1.444,0.56,1.444,1.271c0,1.292-1.454,1.628-3.275,1.597
		c-0.041,0.214-0.01,0.672,0.102,0.937c0.193,0.447,0.59,0.661,1.098,0.661c0.58,0,1.017-0.173,1.322-0.335L74.085,47.811z
		 M73.149,43.712c-0.804,0-1.404,0.783-1.618,1.556c1.333,0.021,2.37-0.162,2.37-0.936C73.902,43.936,73.597,43.712,73.149,43.712z"
		/>
	<path fill="#FFFFFF" d="M78.406,48.085c0-0.295,0.051-0.763,0.111-1.271h-0.02c-0.529,1.027-1.21,1.383-1.912,1.383
		c-0.875,0-1.414-0.69-1.414-1.627c0-1.719,1.261-3.519,3.407-3.519c0.479,0,0.987,0.081,1.332,0.184l-0.508,2.572
		c-0.163,0.854-0.224,1.729-0.204,2.278H78.406z M78.955,43.793c-0.112-0.04-0.295-0.071-0.58-0.071
		c-1.281,0-2.329,1.322-2.329,2.695c0,0.549,0.193,1.089,0.844,1.089c0.702,0,1.536-0.916,1.78-2.228L78.955,43.793z"/>
	<path fill="#FFFFFF" d="M85.676,40.864l-1.078,5.654c-0.092,0.519-0.173,1.089-0.204,1.566h-0.773l0.132-0.977h-0.02
		c-0.448,0.702-1.068,1.088-1.77,1.088c-0.956,0-1.474-0.782-1.474-1.789c0-1.75,1.302-3.356,3.041-3.356
		c0.315,0,0.661,0.07,0.874,0.172l0.438-2.358H85.676z M84.262,43.936c-0.163-0.122-0.448-0.214-0.803-0.214
		c-1.18,0-2.095,1.261-2.095,2.574c0,0.589,0.203,1.21,0.925,1.21c0.651,0,1.434-0.742,1.647-1.852L84.262,43.936z"/>
	<path fill="#FFFFFF" d="M89.335,47.811c-0.366,0.202-0.966,0.386-1.627,0.386c-1.302,0-1.872-0.895-1.872-1.982
		c0-1.485,1.099-3.163,2.685-3.163c0.936,0,1.444,0.56,1.444,1.271c0,1.292-1.455,1.628-3.275,1.597
		c-0.041,0.214-0.01,0.672,0.102,0.937c0.193,0.447,0.589,0.661,1.098,0.661c0.58,0,1.017-0.173,1.322-0.335L89.335,47.811z
		 M88.4,43.712c-0.804,0-1.404,0.783-1.618,1.556c1.332,0.021,2.37-0.162,2.37-0.936C89.152,43.936,88.847,43.712,88.4,43.712z"/>
	<path fill="#FFFFFF" d="M90.402,48.085l0.6-3.173c0.112-0.641,0.193-1.292,0.244-1.75h0.742c-0.041,0.347-0.082,0.691-0.132,1.068
		h0.031c0.315-0.671,0.844-1.18,1.505-1.18c0.082,0,0.173,0.01,0.245,0.02l-0.163,0.834c-0.061-0.01-0.142-0.02-0.233-0.02
		c-0.733,0-1.384,0.885-1.597,2.033l-0.407,2.167H90.402z"/>
	<path fill="#FFFFFF" d="M100.703,40.864l-1.078,5.654c-0.092,0.519-0.173,1.089-0.204,1.566h-0.773l0.132-0.977h-0.02
		c-0.448,0.702-1.068,1.088-1.771,1.088c-0.956,0-1.474-0.782-1.474-1.789c0-1.75,1.302-3.356,3.041-3.356
		c0.315,0,0.661,0.07,0.874,0.172l0.438-2.358H100.703z M99.289,43.936c-0.163-0.122-0.447-0.214-0.803-0.214
		c-1.18,0-2.095,1.261-2.095,2.574c0,0.589,0.203,1.21,0.925,1.21c0.651,0,1.434-0.742,1.647-1.852L99.289,43.936z"/>
	<path fill="#FFFFFF" d="M104.362,47.811c-0.366,0.202-0.966,0.386-1.627,0.386c-1.302,0-1.871-0.895-1.871-1.982
		c0-1.485,1.099-3.163,2.686-3.163c0.936,0,1.443,0.56,1.443,1.271c0,1.292-1.454,1.628-3.274,1.597
		c-0.041,0.214-0.01,0.672,0.102,0.937c0.194,0.447,0.59,0.661,1.099,0.661c0.581,0,1.017-0.173,1.322-0.335L104.362,47.811z
		 M103.427,43.712c-0.804,0-1.404,0.783-1.617,1.556c1.332,0.021,2.37-0.162,2.37-0.936
		C104.179,43.936,103.874,43.712,103.427,43.712z"/>
	<path fill="#FFFFFF" d="M105.469,47.23c0.235,0.143,0.651,0.305,1.059,0.305c0.569,0,0.936-0.366,0.936-0.803
		c0-0.387-0.173-0.62-0.693-0.906c-0.569-0.314-0.885-0.752-0.885-1.261c0-0.854,0.744-1.515,1.781-1.515
		c0.447,0,0.844,0.121,1.027,0.244l-0.234,0.641c-0.173-0.102-0.488-0.224-0.854-0.224c-0.508,0-0.874,0.315-0.874,0.742
		c0,0.356,0.233,0.579,0.682,0.824c0.55,0.305,0.915,0.742,0.915,1.291c0,1.038-0.835,1.617-1.872,1.617
		c-0.528-0.01-1.007-0.162-1.23-0.336L105.469,47.23z"/>
	<path fill="#FFFFFF" d="M114.326,48.085c0-0.295,0.051-0.763,0.112-1.271h-0.02c-0.53,1.027-1.212,1.383-1.913,1.383
		c-0.874,0-1.413-0.69-1.413-1.627c0-1.719,1.261-3.519,3.406-3.519c0.478,0,0.987,0.081,1.332,0.184l-0.508,2.572
		c-0.163,0.854-0.224,1.729-0.203,2.278H114.326z M114.875,43.793c-0.111-0.04-0.294-0.071-0.58-0.071
		c-1.281,0-2.328,1.322-2.328,2.695c0,0.549,0.193,1.089,0.845,1.089c0.701,0,1.535-0.916,1.779-2.228L114.875,43.793z"/>
	<path fill="#FFFFFF" d="M116.378,48.085l0.651-3.488c0.111-0.55,0.183-1.027,0.233-1.435h0.753l-0.123,0.967h0.021
		c0.438-0.692,1.108-1.078,1.82-1.078c0.59,0,1.251,0.335,1.251,1.362c0,0.225-0.041,0.528-0.092,0.793l-0.55,2.879h-0.834
		l0.54-2.848c0.029-0.193,0.061-0.417,0.061-0.631c0-0.487-0.193-0.854-0.772-0.854c-0.601,0-1.455,0.721-1.679,1.942l-0.447,2.39
		H116.378z"/>
	<path fill="#FFFFFF" d="M121.807,48.085l0.651-3.488c0.112-0.55,0.183-1.027,0.233-1.435h0.753l-0.121,0.967h0.02
		c0.438-0.692,1.108-1.078,1.82-1.078c0.59,0,1.251,0.335,1.251,1.362c0,0.225-0.04,0.528-0.091,0.793l-0.549,2.879h-0.834
		l0.538-2.848c0.031-0.193,0.062-0.417,0.062-0.631c0-0.487-0.194-0.854-0.773-0.854c-0.6,0-1.455,0.721-1.678,1.942l-0.448,2.39
		H121.807z"/>
	<path fill="#FFFFFF" d="M131.958,45.095c0,1.525-1.079,3.102-2.736,3.102c-1.231,0-1.923-0.915-1.923-2.023
		c0-1.627,1.129-3.122,2.726-3.122C131.357,43.051,131.958,44.057,131.958,45.095z M128.173,46.142c0,0.805,0.447,1.384,1.159,1.384
		c0.996,0,1.749-1.282,1.749-2.431c0-0.57-0.264-1.373-1.148-1.373C128.875,43.722,128.173,45.014,128.173,46.142z"/>
	<path fill="#FFFFFF" d="M132.544,48.085l0.65-3.488c0.112-0.55,0.184-1.027,0.234-1.435h0.752l-0.121,0.967h0.02
		c0.438-0.692,1.108-1.078,1.82-1.078c0.59,0,1.251,0.335,1.251,1.362c0,0.225-0.039,0.528-0.09,0.793l-0.55,2.879h-0.834
		l0.538-2.848c0.031-0.193,0.062-0.417,0.062-0.631c0-0.487-0.193-0.854-0.772-0.854c-0.601,0-1.456,0.721-1.679,1.942l-0.447,2.39
		H132.544z"/>
	<path fill="#FFFFFF" d="M141.35,47.882c-0.254,0.131-0.764,0.305-1.424,0.305c-1.271,0-1.893-0.854-1.893-1.902
		c0-1.678,1.242-3.224,3.012-3.224c0.457,0,0.874,0.133,1.026,0.214l-0.244,0.671c-0.193-0.092-0.468-0.183-0.833-0.183
		c-1.282,0-2.085,1.261-2.085,2.42c0,0.794,0.417,1.312,1.22,1.312c0.508,0,0.885-0.151,1.139-0.274L141.35,47.882z"/>
	<path fill="#FFFFFF" d="M145.722,47.811c-0.366,0.202-0.967,0.386-1.628,0.386c-1.302,0-1.87-0.895-1.87-1.982
		c0-1.485,1.099-3.163,2.685-3.163c0.936,0,1.443,0.56,1.443,1.271c0,1.292-1.454,1.628-3.274,1.597
		c-0.041,0.214-0.01,0.672,0.102,0.937c0.194,0.447,0.59,0.661,1.099,0.661c0.58,0,1.018-0.173,1.321-0.335L145.722,47.811z
		 M144.787,43.712c-0.805,0-1.404,0.783-1.617,1.556c1.331,0.021,2.369-0.162,2.369-0.936
		C145.539,43.936,145.233,43.712,144.787,43.712z"/>
	<path fill="#FFFFFF" d="M146.829,47.23c0.235,0.143,0.65,0.305,1.059,0.305c0.569,0,0.936-0.366,0.936-0.803
		c0-0.387-0.173-0.62-0.692-0.906c-0.569-0.314-0.885-0.752-0.885-1.261c0-0.854,0.743-1.515,1.78-1.515
		c0.448,0,0.844,0.121,1.027,0.244l-0.234,0.641c-0.173-0.102-0.488-0.224-0.854-0.224c-0.508,0-0.874,0.315-0.874,0.742
		c0,0.356,0.234,0.579,0.682,0.824c0.55,0.305,0.915,0.742,0.915,1.291c0,1.038-0.834,1.617-1.871,1.617
		c-0.528-0.01-1.007-0.162-1.23-0.336L146.829,47.23z"/>
	<path fill="#FFFFFF" d="M78.529,49.901l-1.078,5.654c-0.091,0.519-0.173,1.089-0.204,1.566h-0.772l0.132-0.976h-0.02
		c-0.448,0.701-1.068,1.087-1.77,1.087c-0.956,0-1.475-0.781-1.475-1.789c0-1.75,1.302-3.355,3.041-3.355
		c0.315,0,0.661,0.07,0.875,0.172l0.437-2.359H78.529z M77.115,52.974c-0.163-0.123-0.447-0.215-0.803-0.215
		c-1.18,0-2.095,1.262-2.095,2.574c0,0.589,0.203,1.21,0.925,1.21c0.651,0,1.434-0.742,1.648-1.851L77.115,52.974z"/>
	<path fill="#FFFFFF" d="M82.188,56.848c-0.366,0.203-0.966,0.386-1.627,0.386c-1.302,0-1.872-0.895-1.872-1.982
		c0-1.484,1.099-3.162,2.686-3.162c0.936,0,1.444,0.559,1.444,1.271c0,1.292-1.455,1.627-3.275,1.597
		c-0.041,0.214-0.01,0.672,0.102,0.937c0.193,0.446,0.59,0.66,1.099,0.66c0.58,0,1.017-0.173,1.322-0.335L82.188,56.848z
		 M81.253,52.749c-0.804,0-1.404,0.783-1.617,1.556c1.332,0.021,2.37-0.162,2.37-0.936C82.005,52.974,81.7,52.749,81.253,52.749z"/>
	<path fill="#FFFFFF" d="M85.105,57.122l0.651-3.488c0.102-0.549,0.173-1.026,0.224-1.434h0.742L86.6,53.125h0.021
		c0.458-0.691,1.078-1.036,1.729-1.036c0.753,0,1.108,0.478,1.149,1.098c0.438-0.712,1.068-1.088,1.8-1.098
		c0.57,0,1.2,0.366,1.2,1.291c0,0.224-0.031,0.56-0.082,0.833l-0.549,2.909h-0.824l0.529-2.837c0.041-0.193,0.071-0.438,0.071-0.642
		c0-0.519-0.193-0.854-0.743-0.854c-0.61,0-1.343,0.712-1.545,1.811l-0.469,2.521h-0.813l0.549-2.888
		c0.041-0.225,0.062-0.407,0.062-0.601c0-0.417-0.112-0.844-0.733-0.844c-0.61,0-1.383,0.813-1.576,1.861l-0.447,2.471H85.105z"/>
	<path fill="#FFFFFF" d="M96.575,57.122c0-0.294,0.051-0.762,0.112-1.271h-0.021c-0.529,1.027-1.21,1.382-1.912,1.382
		c-0.875,0-1.414-0.69-1.414-1.627c0-1.719,1.261-3.518,3.407-3.518c0.479,0,0.987,0.08,1.333,0.183l-0.508,2.573
		c-0.163,0.854-0.224,1.729-0.204,2.277H96.575z M97.124,52.831c-0.111-0.041-0.294-0.072-0.58-0.072
		c-1.282,0-2.329,1.323-2.329,2.695c0,0.55,0.193,1.089,0.845,1.089c0.701,0,1.536-0.915,1.779-2.228L97.124,52.831z"/>
	<path fill="#FFFFFF" d="M98.627,57.122l0.601-3.173c0.111-0.641,0.193-1.292,0.244-1.749h0.742
		c-0.041,0.346-0.082,0.691-0.132,1.067h0.031c0.314-0.671,0.844-1.179,1.504-1.179c0.082,0,0.173,0.01,0.244,0.02l-0.162,0.834
		c-0.061-0.01-0.143-0.02-0.234-0.02c-0.733,0-1.384,0.885-1.597,2.033l-0.406,2.166H98.627z"/>
	<path fill="#FFFFFF" d="M105.176,56.92c-0.255,0.131-0.762,0.304-1.424,0.304c-1.271,0-1.891-0.854-1.891-1.901
		c0-1.679,1.24-3.224,3.009-3.224c0.458,0,0.875,0.132,1.028,0.214l-0.245,0.671c-0.193-0.092-0.468-0.184-0.834-0.184
		c-1.281,0-2.085,1.261-2.085,2.421c0,0.793,0.417,1.312,1.22,1.312c0.51,0,0.886-0.152,1.14-0.274L105.176,56.92z"/>
	<path fill="#FFFFFF" d="M106.09,57.122l1.374-7.221h0.844l-0.61,3.163h0.021c0.417-0.6,1.017-0.976,1.76-0.976
		c0.559,0,1.22,0.335,1.22,1.321c0,0.255-0.029,0.58-0.08,0.824l-0.55,2.888h-0.845l0.549-2.847
		c0.031-0.174,0.063-0.407,0.063-0.683c0-0.447-0.215-0.803-0.764-0.803c-0.651,0-1.474,0.763-1.678,1.861l-0.458,2.471H106.09z"/>
	<path fill="#FFFFFF" d="M115.069,56.848c-0.366,0.203-0.967,0.386-1.627,0.386c-1.302,0-1.872-0.895-1.872-1.982
		c0-1.484,1.099-3.162,2.685-3.162c0.936,0,1.445,0.559,1.445,1.271c0,1.292-1.455,1.627-3.275,1.597
		c-0.041,0.214-0.01,0.672,0.103,0.937c0.192,0.446,0.59,0.66,1.098,0.66c0.579,0,1.018-0.173,1.323-0.335L115.069,56.848z
		 M114.133,52.749c-0.803,0-1.403,0.783-1.617,1.556c1.333,0.021,2.37-0.162,2.37-0.936
		C114.886,52.974,114.582,52.749,114.133,52.749z M115.811,50.146l-1.353,1.454h-0.66l1.006-1.454H115.811z"/>
	<path fill="#FFFFFF" d="M116.175,56.269c0.234,0.143,0.651,0.305,1.059,0.305c0.569,0,0.936-0.366,0.936-0.804
		c0-0.386-0.173-0.62-0.692-0.905c-0.569-0.314-0.885-0.753-0.885-1.261c0-0.854,0.743-1.515,1.779-1.515
		c0.448,0,0.846,0.121,1.028,0.243l-0.233,0.642c-0.174-0.102-0.489-0.225-0.855-0.225c-0.508,0-0.875,0.315-0.875,0.743
		c0,0.355,0.234,0.579,0.683,0.823c0.549,0.305,0.915,0.743,0.915,1.291c0,1.038-0.834,1.617-1.871,1.617
		c-0.529-0.01-1.007-0.162-1.23-0.335L116.175,56.269z"/>
	<path fill="#FFFFFF" d="M121.331,59.136l0.986-5.187c0.112-0.6,0.214-1.261,0.275-1.76h0.772l-0.132,0.936h0.02
		c0.438-0.65,1.088-1.036,1.77-1.036c1.059,0,1.505,0.874,1.505,1.779c0,1.738-1.24,3.365-2.877,3.365
		c-0.519,0-0.865-0.111-1.058-0.223h-0.021l-0.396,2.125H121.331z M122.714,56.298c0.223,0.174,0.538,0.275,0.945,0.275
		c1.088,0,1.993-1.353,1.993-2.645c0-0.519-0.224-1.139-0.946-1.139c-0.661,0-1.484,0.753-1.738,2.136L122.714,56.298z"/>
	<path fill="#FFFFFF" d="M131.907,52.2l-0.662,3.488c-0.111,0.549-0.172,1.027-0.223,1.434h-0.754l0.122-0.925h-0.02
		c-0.438,0.641-1.079,1.036-1.729,1.036c-0.632,0-1.302-0.304-1.302-1.423c0-0.233,0.03-0.509,0.091-0.834l0.54-2.776h0.834
		l-0.519,2.745c-0.051,0.275-0.082,0.509-0.082,0.723c0,0.509,0.203,0.854,0.783,0.854c0.609,0,1.393-0.722,1.597-1.801l0.478-2.521
		H131.907z"/>
	<path fill="#FFFFFF" d="M134.629,49.901l-0.651,3.193H134c0.438-0.661,1.067-1.006,1.729-1.006c1.078,0,1.484,0.895,1.484,1.77
		c0,1.515-1.087,3.375-3.061,3.375c-0.864,0-1.516-0.354-1.516-1.261c0-0.243,0.04-0.538,0.091-0.772l1.06-5.299H134.629z
		 M133.561,55.221c-0.04,0.173-0.07,0.366-0.061,0.631c0,0.468,0.274,0.722,0.793,0.722c1.271,0,2.045-1.515,2.045-2.613
		c0-0.61-0.264-1.17-0.936-1.17c-0.731,0-1.485,0.753-1.729,1.912L133.561,55.221z"/>
	<path fill="#FFFFFF" d="M137.802,57.122l1.372-7.221h0.844l-1.373,7.221H137.802z"/>
	<path fill="#FFFFFF" d="M140.119,57.122l0.946-4.922h0.834l-0.936,4.922H140.119z M141.217,50.837
		c0.012-0.325,0.254-0.568,0.55-0.568c0.305,0,0.509,0.223,0.509,0.528c-0.011,0.335-0.244,0.569-0.579,0.569
		C141.401,51.366,141.217,51.142,141.217,50.837z"/>
	<path fill="#FFFFFF" d="M145.833,56.92c-0.254,0.131-0.763,0.304-1.423,0.304c-1.271,0-1.893-0.854-1.893-1.901
		c0-1.679,1.241-3.224,3.011-3.224c0.458,0,0.874,0.132,1.027,0.214l-0.244,0.671c-0.194-0.092-0.468-0.184-0.834-0.184
		c-1.282,0-2.085,1.261-2.085,2.421c0,0.793,0.417,1.312,1.22,1.312c0.509,0,0.885-0.152,1.139-0.274L145.833,56.92z"/>
	<path fill="#FFFFFF" d="M146.829,56.269c0.235,0.143,0.65,0.305,1.059,0.305c0.569,0,0.936-0.366,0.936-0.804
		c0-0.386-0.173-0.62-0.692-0.905c-0.569-0.314-0.885-0.753-0.885-1.261c0-0.854,0.743-1.515,1.78-1.515
		c0.448,0,0.844,0.121,1.027,0.243l-0.234,0.642c-0.173-0.102-0.488-0.225-0.854-0.225c-0.508,0-0.874,0.315-0.874,0.743
		c0,0.355,0.234,0.579,0.682,0.823c0.55,0.305,0.915,0.743,0.915,1.291c0,1.038-0.834,1.617-1.871,1.617
		c-0.528-0.01-1.007-0.162-1.23-0.335L146.829,56.269z"/>
</g>
</svg>
